<?xml version="1.0" encoding="iso-8859-1"?>
<!-- Uploaded to: SVG Repo, www.svgrepo.com, Generator: SVG Repo Mixer Tools -->
<svg fill="#000000" height="800px" width="800px" version="1.1" id="Layer_1" xmlns="http://www.w3.org/2000/svg" xmlns:xlink="http://www.w3.org/1999/xlink" 
	 viewBox="0 0 480.624 480.624" xml:space="preserve">
<g>
	<g>
		<path d="M408,240.344c4.416,0,8-3.576,8-8v-208c0-13.232-10.768-24.032-24-24.032H64c-13.232,0-24,10.8-24,24.032v23.968H24
			c-13.232,0-24,10.768-24,24s10.768,24,24,24h16v40H24c-12.608,0-22.656,8.872-23.872,20.6C0.04,157.368,0,157.856,0,158.344v1
			c0,0.432,0.032,0.84,0.104,1.256C1.24,173.48,11.92,184.312,24,184.312h16v32H24c-13.232,0-24,10.768-24,24s10.768,24,24,24h16v40
			H24c-12.608,0-22.656,8.872-23.872,20.6C0.04,325.368,0,325.856,0,326.344v1c0,0.432,0.032,0.84,0.104,1.256
			C1.24,341.48,11.92,352.312,24,352.312h16v32H24c-13.232,0-24,10.768-24,24s10.768,24,24,24h16v24.032
			c0,13.232,10.768,23.968,24,23.968h328c13.232,0,24-10.736,24-23.968v-40c0-4.424-3.584-8-8-8c-4.416,0-8,3.576-8,8v40
			c0,4.416-3.592,7.968-8,7.968H64c-4.408,0-8-3.552-8-7.968v-32v-32v-48v-32v-56v-32v-48v-32v-56v-32v-32
			c0-4.416,3.592-8.032,8-8.032h328c4.408,0,8,3.616,8,8.032v208C400,236.768,403.584,240.344,408,240.344z M40,416.312H24
			c-4.408,0-8-3.584-8-8c0-4.416,3.592-8,8-8h16V416.312z M40,336.312H24c-3.752,0-7.712-4.792-7.984-9.496
			c0.272-4.464,4.264-6.504,7.984-6.504h16V336.312z M40,248.312H24c-4.408,0-8-3.584-8-8c0-4.416,3.592-8,8-8h16V248.312z
			 M40,168.312H24c-3.752,0-7.712-4.792-7.984-9.496c0.272-4.464,4.264-6.504,7.984-6.504h16V168.312z M40,80.312H24
			c-4.408,0-8-3.584-8-8c0-4.416,3.592-8,8-8h16V80.312z"/>
	</g>
</g>
<g>
	<g>
		<path d="M356,48.312H116c-2.208,0-4,1.824-4,4.032v240c0,2.208,1.792,3.968,4,3.968h12.896c-2.832,8-4.496,11.664-4.496,18.08
			c0,10.688,4.16,20.736,11.712,28.288l22.632,22.632c0.56,0.56,1.24,0.912,1.912,1.272c0.36,0.68,0.712,1.368,1.288,1.936
			l64.936,64.928c1.56,1.56,3.608,2.344,5.656,2.344c1.952,0,3.88-0.76,5.408-2.176c1.528,1.424,3.456,2.184,5.408,2.184
			c2.048,0,4.096-0.784,5.656-2.344l45.504-45.504c3.128-3.128,3.128-8.184,0-11.312l-19.432-19.432
			c-3.128-3.128-8.184-3.128-11.312,0c-3.128,3.128-3.128,8.184,0,11.312l13.776,13.776l-39.6,39.6l-62.232-62.224l33.32-33.32
			l6.288-6.288c3.144,2.872,8.032,2.792,11.064-0.24c3.12-3.136,3.12-7.584-0.008-10.704l-5.408-4.808h-0.008l-6.728-8H304
			c2.208,0,4-1.792,4-4s-1.792-4-4-4h-36.528c7.984,0,15.792-4.864,23.296-8.616c1.976-0.984,2.776-3.384,1.792-5.36
			s-3.384-2.784-5.368-1.784c-13.872,6.936-28.752,10.656-44.224,11.456l24.464-24.464c1.56-1.56,1.56-4.096,0-5.656
			c-1.56-1.56-4.096-1.56-5.656,0l-21.752,21.76l0.24-49.296c0.008-2.208-1.776-2.04-3.984-2.04c-0.008,0-0.008,0-0.016,0
			c-2.2,0-3.992-0.2-4,2l-0.24,50.36l-44.848-45.352l32.992-33.232c1.56-1.56,1.56-4.216,0-5.784s-4.096-1.624-5.656-0.064
			l-32.992,32.944l-48.84-48.872H216c2.208,0,4-1.792,4-4s-1.792-4-4-4h-83.32l44.832-44.816l25.976,25.984
			c0.784,0.784,1.808,1.176,2.832,1.176s2.048-0.392,2.832-1.168c1.56-1.56,1.56-4.096,0-5.656l-25.976-25.976l49.808-49.808
			l-0.232,49.592c-0.024,2.208,1.76,2.672,3.968,2.672c0.008,0,0.008,0,0.016,0c2.2,0,3.992-0.432,4-2.64l0.224-48.352l47.864,48.2
			l-18.992,19.16c-1.56,1.56-1.56,4.176,0,5.744c0.784,0.784,1.808,1.216,2.832,1.216s2.048-0.368,2.832-1.152l18.992-19
			l44.832,44.824H320c-2.208,0-4,1.792-4,4s1.792,4,4,4h19.32l-6.144,6.168c-1.56,1.56-1.56,4.104,0,5.664s4.096,1.568,5.656,0
			L349,177.976c-0.368,7.08-1.208,14.12-2.88,20.96c-0.528,2.144,0.784,4.304,2.928,4.832c1.424,0.352,2.808-0.152,3.768-1.128
			c0.728,1.008,1.848,1.704,3.184,1.704c2.208,0,4-1.792,4-4v-148C360,50.136,358.208,48.312,356,48.312z M120,56.312h84.312
			c-41.784,8-74.32,45.712-84.312,88.232V56.312z M134.296,288.312H120v-88.808c6.672,28.416,23.416,52.928,46.288,69.632
			c-8.944,0.84-17.68,4.496-24.52,11.328l-5.656,5.648C135.432,286.792,134.92,288.312,134.296,288.312z M177.192,335.552
			L164.4,348.344l-16.976-16.968c-4.528-4.528-7.024-10.552-7.024-16.968c0-6.416,2.496-12.44,7.032-16.968l5.656-5.664
			c4.68-4.672,10.832-7.016,16.976-7.016c6.144,0,12.288,2.336,16.968,7.016L204,308.752L177.192,335.552z M206.224,288.344
			l-0.2-0.2c0.256,0.072,0.512,0.136,0.768,0.2H206.224z M181.52,236.488l47.44,47.448c-25.512-1.832-48.64-12.184-66.624-28.264
			L181.52,236.488z M175.856,230.832l-19.336,19.336c-17.888-18.424-29.456-42.92-31.4-70.08L175.856,230.832z M125.088,164.632
			c1.656-25.304,11.68-48.312,27.392-66.312c0.12,0.16,0.176,0.344,0.32,0.488l19.056,19.056L125.088,164.632z M177.512,112.2
			l-19.056-19.056c-0.232-0.232-0.52-0.368-0.792-0.528c18.696-18.688,43.968-30.704,71.976-32.544L177.512,112.2z M242.248,59.968
			c28.744,1.328,54.72,13.384,73.88,32.4c-1.064-0.032-2.136,0.336-2.952,1.144L294.488,112.2L242.248,59.968z M300.144,117.856
			l18.688-18.688c0.728-0.728,1.088-1.68,1.136-2.64c17.088,18.76,27.88,43.256,29.128,70.272L300.144,117.856z M352,136.528
			c-11.992-38.752-43.104-72.216-82.24-80.216H352V136.528z"/>
	</g>
</g>
<g>
	<g>
		<path d="M382.488,244.688l-3.68-3.688c-3.128-3.128-8.2-3.128-11.32,0c-3.128,3.12-3.128,8.184-0.008,11.312l3.68,3.688
			c1.56,1.56,3.616,2.344,5.664,2.344c2.048,0,4.096-0.784,5.656-2.344C385.608,252.88,385.608,247.816,382.488,244.688z"/>
	</g>
</g>
<g>
	<g>
		<path d="M468.912,331.12l-16.968-16.976l-54.728-54.728c-3.128-3.128-8.184-3.128-11.312,0c-3.128,3.128-3.128,8.184,0,11.312
			l49.064,49.072l-11.312,11.312l-28.384-28.384l-76.216-76.216l-7.608-7.616l-12.232-12.232l9.296-9.296l2.016-2.016l42.232,42.224
			c1.56,1.56,3.608,2.344,5.656,2.344c2.048,0,4.096-0.784,5.656-2.344c3.128-3.128,3.128-8.184,0-11.312l-47.888-47.88
			c-0.072-0.072-0.16-0.088-0.232-0.152c-0.632-0.592-1.32-1.112-2.128-1.48l-31.152-14.064c-0.008,0-0.016-0.008-0.024-0.016
			L231.2,139.376c-3.032-1.368-6.608-0.712-8.96,1.632c-2.352,2.352-3,5.92-1.632,8.952l23.296,51.432l14.072,31.176
			c0.368,0.808,0.888,1.496,1.48,2.128c0.064,0.072,0.088,0.168,0.16,0.24l135.76,135.776l16.968,16.968
			c7.552,7.552,17.6,11.72,28.28,11.72c10.688,0,20.728-4.168,28.288-11.72s11.712-17.592,11.712-28.28
			S476.464,338.672,468.912,331.12z M259.608,178.384l-5.896,5.896l-9.768-21.568l21.56,9.768L259.608,178.384z M260.76,199.856
			l20.328-20.328l15.592,7.04l-14.44,14.44l-14.44,14.44L260.76,199.856z M401.032,353.744L276.576,229.288l1.888-1.888l9.432-9.424
			l18.144,18.144l34.616,34.616c0,0,0.008,0,0.008,0.008l14.728,14.728c0,0,0,0,0,0.008l1.64,1.632l16.776,16.776l9.464,9.464
			l29.08,29.08L401.032,353.744z M457.6,376.368c-9.072,9.064-24.872,9.064-33.944,0l-11.312-11.312l33.944-33.936l11.312,11.312
			c4.528,4.528,7.024,10.552,7.024,16.968C464.624,365.816,462.128,371.832,457.6,376.368z"/>
	</g>
</g>
<g>
	<g>
		<path d="M253.44,335.552l-5.408-5.408c-3.128-3.128-8.192-3.128-11.32,0c-3.12,3.128-3.12,8.192,0,11.312l5.408,5.408
			c1.56,1.568,3.608,2.344,5.656,2.344c2.048,0,4.096-0.784,5.664-2.344C256.56,343.736,256.56,338.672,253.44,335.552z"/>
	</g>
</g>
<g>
	<g>
		<path d="M237.944,365.32c-3.128-3.128-8.192-3.128-11.312,0l-5.656,5.656c-3.128,3.128-3.128,8.184,0,11.312
			c1.56,1.56,3.608,2.344,5.656,2.344c2.048,0,4.096-0.784,5.656-2.344l5.656-5.656C241.072,373.504,241.072,368.448,237.944,365.32
			z"/>
	</g>
</g>
<g>
	<g>
		<path d="M360,424.312h-56c-4.416,0-8,3.576-8,8s3.584,8,8,8h56c4.416,0,8-3.576,8-8S364.416,424.312,360,424.312z"/>
	</g>
</g>
</svg>