<svg xmlns="http://www.w3.org/2000/svg"  viewBox="0 0 100 100" width="50px" height="50px"><circle cx="14" cy="29" r="2" fill="#ee3e54"/><circle cx="78" cy="13" r="1" fill="#f1bc19"/><circle cx="51" cy="50" r="37" fill="#fce0a2"/><circle cx="84" cy="15" r="4" fill="#f1bc19"/><circle cx="88" cy="24" r="2" fill="#ee3e54"/><circle cx="82" cy="76" r="2" fill="#fbcd59"/><circle cx="16" cy="63" r="4" fill="#fbcd59"/><circle cx="26" cy="87" r="2" fill="#ee3e54"/><circle cx="22.5" cy="55.5" r="2.5" fill="#fff"/><circle cx="22" cy="67" r="1" fill="#f1bc19"/><circle cx="81" cy="34" r="1" fill="#fff"/><g><polygon fill="#85cfcc" points="62,44 62,69 63,71 73,71 73,30"/><path fill="#00a5a5" d="M63,71l-1-2V44l11-14C73,30,72,56,63,71z"/><path fill="#00a5a5" d="M40,69c-3.401,2.342-7.089,2.877-11,2V30h11V69z"/><path fill="#00a5a5" d="M63,71l-1-2V44l11-14C73,30,72,56,63,71z"/><path fill="#85cfcc" d="M40,38c0,0,2,18-11,33c0-6,0.563-40.25,0.563-40.25L40,38z"/><polygon fill="#85cfcc" points="60.563,30 47.563,63 55.563,63 73.563,30"/><polygon fill="#a8dbdb" points="42.5,29.313 29.5,30.313 47.5,63.313 55.5,63.313"/><path fill="#472b29" d="M73.5,72h-10c-0.189,0-0.362-0.107-0.447-0.276l-1-2C62.018,69.654,62,69.578,62,69.5V52.627 L55.939,63.74C55.852,63.9,55.683,64,55.5,64h-8c-0.183,0-0.352-0.1-0.439-0.26L41,52.627V69c0,0.165-0.081,0.319-0.216,0.412 c-3.366,2.318-7.197,3.017-11.393,2.076C29.162,71.437,29,71.234,29,71V30.5c0-0.261,0.201-0.479,0.461-0.499l13-1 c0.228-0.016,0.427,0.113,0.505,0.32l8.6,22.491l8.468-21.496C60.11,30.126,60.294,30,60.5,30h13c0.276,0,0.5,0.224,0.5,0.5v41 C74,71.776,73.776,72,73.5,72z M63.809,71H73V31H60.84l-8.815,22.378c-0.076,0.192-0.219,0.333-0.468,0.317 c-0.207-0.001-0.391-0.129-0.464-0.322l-8.927-23.346L30,30.963v39.632c3.717,0.746,6.992,0.135,10-1.861V50.667 c0-0.229,0.155-0.428,0.376-0.485c0.22-0.055,0.453,0.045,0.563,0.245L47.797,63h7.406l6.858-12.573 c0.109-0.201,0.342-0.3,0.563-0.245C62.845,50.239,63,50.438,63,50.667v18.716L63.809,71z"/><path fill="#472b29" d="M40.688,51.625c-0.181,0-0.354-0.098-0.444-0.269l-9.188-17.625 c-0.127-0.245-0.033-0.547,0.212-0.675c0.245-0.129,0.547-0.032,0.674,0.212l9.188,17.625c0.127,0.245,0.033,0.547-0.212,0.675 C40.845,51.607,40.766,51.625,40.688,51.625z"/><path fill="#472b29" d="M55.375,63.563c-0.201,0-0.391-0.122-0.467-0.321l-3.813-9.938 c-0.099-0.258,0.03-0.547,0.288-0.646c0.259-0.099,0.547,0.03,0.646,0.288l3.813,9.938c0.099,0.258-0.03,0.547-0.288,0.646 C55.495,63.552,55.435,63.563,55.375,63.563z"/><path fill="#472b29" d="M62.437,51.375c-0.081,0-0.162-0.019-0.238-0.06c-0.243-0.132-0.333-0.435-0.201-0.678l11-20.313 c0.131-0.243,0.435-0.333,0.678-0.202c0.243,0.132,0.333,0.435,0.201,0.678l-11,20.313C62.787,51.28,62.615,51.375,62.437,51.375 z"/><path fill="#472b29" d="M37.666,57.074c-0.029,0-0.058-0.005-0.087-0.016c-0.129-0.048-0.195-0.192-0.147-0.321 c0.889-2.403,1.473-4.791,1.736-7.099c0.016-0.138,0.139-0.238,0.277-0.22c0.137,0.016,0.236,0.139,0.22,0.277 c-0.269,2.348-0.862,4.776-1.765,7.216C37.863,57.011,37.768,57.074,37.666,57.074z"/><path fill="#472b29" d="M29.25,70.833c-0.062,0-0.124-0.023-0.173-0.069c-0.1-0.095-0.104-0.254-0.008-0.354 c0.04-0.042,4.053-4.283,7.028-10.523c0.06-0.125,0.208-0.177,0.333-0.118c0.125,0.059,0.178,0.208,0.118,0.333 c-3.011,6.316-7.077,10.611-7.118,10.653C29.382,70.807,29.316,70.833,29.25,70.833z"/><path fill="#472b29" d="M63.083,70.917c-0.044,0-0.089-0.012-0.13-0.037c-0.118-0.072-0.155-0.226-0.083-0.344 c0.822-1.349,1.614-2.876,2.355-4.539c0.056-0.126,0.206-0.183,0.33-0.126c0.126,0.056,0.183,0.204,0.127,0.33 c-0.75,1.682-1.552,3.228-2.385,4.595C63.25,70.874,63.167,70.917,63.083,70.917z"/><path fill="#472b29" d="M66.679,63.358c-0.029,0-0.059-0.005-0.088-0.016c-0.129-0.049-0.194-0.193-0.146-0.322 c0.712-1.887,1.387-3.961,2.006-6.164c0.038-0.133,0.175-0.211,0.308-0.173c0.133,0.037,0.21,0.175,0.173,0.308 c-0.623,2.217-1.302,4.305-2.02,6.206C66.875,63.297,66.78,63.358,66.679,63.358z"/><path fill="#472b29" d="M69.508,54.065c-0.02,0-0.04-0.002-0.06-0.007c-0.134-0.033-0.216-0.168-0.183-0.302 c2.731-11.132,3.396-21.912,3.402-22.02c0.008-0.138,0.123-0.244,0.264-0.235c0.138,0.008,0.243,0.126,0.235,0.264 c-0.006,0.108-0.673,10.932-3.416,22.109C69.723,53.988,69.621,54.065,69.508,54.065z"/></g></svg>